<?xml version="1.0" encoding="UTF-8" standalone="no"?>
<svg
   height="18"
   viewBox="0 -960 720 720"
   width="18"
   fill="#e3e3e3"
   version="1.1"
   id="svg1"
   sodipodi:docname="call.svg"
   inkscape:version="1.4 (e7c3feb100, 2024-10-09)"
   xmlns:inkscape="http://www.inkscape.org/namespaces/inkscape"
   xmlns:sodipodi="http://sodipodi.sourceforge.net/DTD/sodipodi-0.dtd"
   xmlns="http://www.w3.org/2000/svg"
   xmlns:svg="http://www.w3.org/2000/svg">
  <defs
     id="defs1" />
  <sodipodi:namedview
     id="namedview1"
     pagecolor="#ffffff"
     bordercolor="#000000"
     borderopacity="0.25"
     inkscape:showpageshadow="2"
     inkscape:pageopacity="0.0"
     inkscape:pagecheckerboard="0"
     inkscape:deskcolor="#d1d1d1"
     inkscape:zoom="24.958333"
     inkscape:cx="8.9749583"
     inkscape:cy="9.015025"
     inkscape:window-width="1878"
     inkscape:window-height="967"
     inkscape:window-x="0"
     inkscape:window-y="0"
     inkscape:window-maximized="1"
     inkscape:current-layer="svg1" />
  <path
     d="m 678,-240 c -83.33333,0 -165.66667,-18.16667 -247,-54.5 C 349.66667,-330.83333 275.66667,-382.33333 209,-449 142.33333,-515.66667 90.83333,-589.66667 54.5,-671 18.16667,-752.33333 0,-834.66667 0,-918 c 0,-12 4,-22 12,-30 8,-8 18,-12 30,-12 h 162 c 9.33333,0 17.66667,3.16667 25,9.5 7.33333,6.33333 11.66667,13.83333 13,22.5 l 26,140 c 1.33333,10.66667 1,19.66667 -1,27 -2,7.33333 -5.66667,13.66667 -11,19 l -97,98 c 13.33333,24.66667 29.16667,48.5 47.5,71.5 18.33333,23 38.5,45.16667 60.5,66.5 20.66667,20.66667 42.33333,39.83333 65,57.5 22.66667,17.66667 46.66667,33.83333 72,48.5 l 94,-94 c 6,-6 13.83333,-10.5 23.5,-13.5 9.66667,-3 19.16667,-3.83333 28.5,-2.5 l 138,28 c 9.33333,2.66667 17,7.5 23,14.5 6,7 9,14.83333 9,23.5 v 162 c 0,12 -4,22 -12,30 -8,8 -18,12 -30,12 z m -557,-480 66,-66 -17,-94 H 81 c 3.33333,27.33333 8,54.33333 14,81 6,26.66667 14.66667,53 26,79 z m 358,358 c 26,11.33333 52.5,20.33333 79.5,27 27,6.66667 54.16667,11 81.5,13 v -88 l -94,-19 z"
     id="path1"
     style="fill:#4d4d4d;fill-opacity:1"
     sodipodi:nodetypes="sssssssssccsccscscssccsssssccccsccscccc" />
</svg>
